<svg version="1.1" viewBox="0.0 0.0 800.0 600.0" fill="none" stroke="none" stroke-linecap="square" stroke-miterlimit="10" xmlns:xlink="http://www.w3.org/1999/xlink" xmlns="http://www.w3.org/2000/svg"><clipPath id="p.0"><path d="m0 0l800.0 0l0 600.0l-800.0 0l0 -600.0z" clip-rule="nonzero"/></clipPath><g clip-path="url(#p.0)"><path fill="#000000" fill-opacity="0.0" d="m0 0l800.0 0l0 600.0l-800.0 0z" fill-rule="evenodd"/><path fill="#ffffff" d="m313.0105 210.11548l191.77954 0l0 191.77954l-191.77954 0z" fill-rule="evenodd"/><path fill="#ffffff" d="m408.90295 210.31223l95.68503 95.68503l-95.68503 95.68506l-95.68503 -95.68506z" fill-rule="evenodd"/><path fill="#000000" fill-opacity="0.0" d="m501.05734 269.39938l-184.31494 0l0 71.08661l184.31494 0z" fill-rule="evenodd"/><path fill="#7ed957" d="m333.07913 319.35938q-0.9375 0 -1.578125 -0.640625q-0.640625 -0.640625 -0.640625 -1.578125l0 -28.875q0 -0.984375 0.640625 -1.59375q0.640625 -0.625 1.578125 -0.625q1.28125 0 1.96875 1.1875l13.34375 26.75l-1.359375 0l13.0 -26.75q0.6875 -1.1875 1.96875 -1.1875q0.9375 0 1.578125 0.625q0.640625 0.609375 0.640625 1.59375l0 28.875q0 0.9375 -0.671875 1.578125q-0.65625 0.640625 -1.546875 0.640625q-0.9375 0 -1.578125 -0.640625q-0.640625 -0.640625 -0.640625 -1.578125l0 -22.734375l0.859375 -0.21875l-11.1875 22.78125q-0.71875 1.109375 -1.921875 1.109375q-1.40625 0 -2.046875 -1.328125l-11.046875 -22.125l0.859375 -0.21875l0 22.734375q0 0.9375 -0.640625 1.578125q-0.640625 0.640625 -1.578125 0.640625zm49.06024 0.21875q-2.953125 0 -5.28125 -1.25q-2.3125 -1.265625 -3.65625 -3.703125q-1.34375 -2.4375 -1.34375 -5.96875l0 -10.5q0 -0.9375 0.609375 -1.546875q0.625 -0.625 1.5625 -0.625q0.9375 0 1.546875 0.625q0.625 0.609375 0.625 1.546875l0 10.5q0 2.390625 0.890625 3.953125q0.90625 1.546875 2.4375 2.296875q1.53125 0.734375 3.453125 0.734375q1.84375 0 3.265625 -0.71875q1.421875 -0.71875 2.28125 -1.953125q0.859375 -1.25 0.859375 -2.78125l2.6875 0q0 2.640625 -1.3125 4.78125q-1.296875 2.125 -3.53125 3.375q-2.234375 1.234375 -5.09375 1.234375zm9.421875 -0.21875q-0.9375 0 -1.5625 -0.609375q-0.609375 -0.625 -0.609375 -1.5625l0 -19.03125q0 -0.984375 0.609375 -1.578125q0.625 -0.59375 1.5625 -0.59375q0.984375 0 1.578125 0.59375q0.59375 0.59375 0.59375 1.578125l0 19.03125q0 0.9375 -0.59375 1.5625q-0.59375 0.609375 -1.578125 0.609375z" fill-rule="nonzero"/><path fill="#ff5757" d="m404.01215 319.35938q-0.9375 0 -1.5625 -0.640625q-0.609375 -0.640625 -0.609375 -1.578125l0 -28.875q0 -0.9375 0.640625 -1.578125q0.640625 -0.640625 1.53125 -0.640625q0.9375 0 1.578125 0.640625q0.640625 0.640625 0.640625 1.578125l0 26.65625l15.4375 0q0.953125 0 1.578125 0.640625q0.640625 0.640625 0.640625 1.578125q0 0.9375 -0.640625 1.578125q-0.625 0.640625 -1.578125 0.640625l-17.65625 0zm27.385284 0q-0.9375 0 -1.5625 -0.609375q-0.609375 -0.625 -0.609375 -1.5625l0 -18.984375q0 -0.984375 0.609375 -1.578125q0.625 -0.59375 1.5625 -0.59375q0.984375 0 1.578125 0.59375q0.59375 0.59375 0.59375 1.578125l0 18.984375q0 0.9375 -0.59375 1.5625q-0.59375 0.609375 -1.578125 0.609375zm0 -27.125q-1.15625 0 -1.984375 -0.828125q-0.828125 -0.84375 -0.828125 -1.984375q0 -1.15625 0.828125 -1.984375q0.828125 -0.84375 1.984375 -0.84375q1.15625 0 1.984375 0.84375q0.828125 0.828125 0.828125 1.984375q0 1.140625 -0.828125 1.984375q-0.828125 0.828125 -1.984375 0.828125zm29.991547 27.171875q-0.9375 0 -1.5625 -0.609375q-0.609375 -0.625 -0.609375 -1.5625l0 -10.5q0 -2.4375 -0.90625 -3.96875q-0.890625 -1.53125 -2.40625 -2.28125q-1.515625 -0.75 -3.46875 -0.75q-1.796875 0 -3.25 0.734375q-1.453125 0.71875 -2.3125 1.9375q-0.84375 1.21875 -0.84375 2.796875l-2.6875 0q0 -2.6875 1.296875 -4.796875q1.3125 -2.125 3.5625 -3.359375q2.265625 -1.234375 5.078125 -1.234375q2.953125 0 5.265625 1.265625q2.328125 1.25 3.671875 3.6875q1.34375 2.421875 1.34375 5.96875l0 10.5q0 0.9375 -0.625 1.5625q-0.609375 0.609375 -1.546875 0.609375zm-17.53125 0q-0.9375 0 -1.5625 -0.609375q-0.609375 -0.625 -0.609375 -1.5625l0 -19.03125q0 -0.984375 0.609375 -1.578125q0.625 -0.59375 1.5625 -0.59375q0.984375 0 1.578125 0.59375q0.59375 0.59375 0.59375 1.578125l0 19.03125q0 0.9375 -0.59375 1.5625q-0.59375 0.609375 -1.578125 0.609375zm31.013397 -8.578125l-2.640625 -2.90625l13.09375 -11.6875q0.640625 -0.59375 1.421875 -0.546875q0.796875 0.046875 1.34375 0.6875q0.59375 0.625 0.546875 1.40625q-0.03125 0.765625 -0.671875 1.359375l-13.09375 11.6875zm-2.015625 8.53125q-0.9375 0 -1.515625 -0.578125q-0.5625 -0.578125 -0.5625 -1.515625l0 -29.125q0 -0.9375 0.5625 -1.515625q0.578125 -0.578125 1.515625 -0.578125q0.953125 0 1.515625 0.578125q0.578125 0.578125 0.578125 1.515625l0 29.125q0 0.9375 -0.578125 1.515625q-0.5625 0.578125 -1.515625 0.578125zm15.234375 -0.21875q-0.6875 0.5625 -1.515625 0.5q-0.828125 -0.0625 -1.390625 -0.75l-8.65625 -10.703125l2.984375 -2.8125l8.875 10.90625q0.5625 0.6875 0.484375 1.484375q-0.0625 0.78125 -0.78125 1.375z" fill-rule="nonzero"/><path fill="#7ed957" d="m389.37534 322.93457l0 11.133606l0 0c0 6.0100403 4.872101 10.882141 10.882172 10.882141l22.383911 0l0 0c2.886139 0 5.6540527 -1.1465149 7.6948547 -3.1872864c2.040802 -2.040802 3.187317 -4.8087463 3.187317 -7.6948547l0 0l3.379303 0l-5.503937 -7.70047l-5.503937 7.70047l3.379303 0l0 0l0 0c0 3.6632385 -2.9696655 6.632904 -6.632904 6.632904l-22.383911 0l0 0c-3.663269 0 -6.6329346 -2.9696655 -6.6329346 -6.632904l0 -11.133606z" fill-rule="evenodd"/><path fill="#ff5757" d="m433.43307 289.0761l0 -11.133575l0 0c0 -6.010071 -4.872101 -10.882172 -10.882172 -10.882172l-22.286835 0l0 0c-2.886139 0 -5.6540527 1.1465149 -7.6948547 3.187317c-2.040802 2.040802 -3.187317 4.808716 -3.187317 7.6948547l0 0l-3.4763794 0l5.503937 7.7004395l5.503937 -7.7004395l-3.47641 0l0 0l0 0c0 -3.7705078 3.05661 -6.8270874 6.8270874 -6.8270874l22.286835 0l0 0c3.7705078 0 6.8270874 3.0565796 6.8270874 6.8270874l0 11.133575z" fill-rule="evenodd"/></g></svg>